<mxfile host="app.diagrams.net" modified="2024-04-04T07:32:03.812Z" agent="Mozilla/5.0 (Windows NT 10.0; Win64; x64) AppleWebKit/537.36 (KHTML, like Gecko) Chrome/123.0.0.0 Safari/537.36" version="24.2.2" etag="9M7QBoeGzGxdv74EU2PV" type="github">
  <diagram name="Trang-1" id="3UiEf16O9r2EEK7mlClC">
    <mxGraphModel>
      <root>
        <mxCell id="0" />
        <mxCell id="1" parent="0" />
      </root>
    </mxGraphModel>
  </diagram>
</mxfile>
